<?xml version="1.0" encoding="utf-8"?>
<!-- Generator: Adobe Illustrator 24.0.2, SVG Export Plug-In . SVG Version: 6.00 Build 0)  -->
<svg version="1.1" id="Layer_1" xmlns="http://www.w3.org/2000/svg" xmlns:xlink="http://www.w3.org/1999/xlink" x="0px" y="0px"
	 viewBox="0 0 512 512" style="enable-background:new 0 0 512 512;" xml:space="preserve">
<style type="text/css">
	.st0{fill:#335B66;}
</style>
<g>
	<g id="XMLID_70_">
		<g id="XMLID_180_">
			<path class="st0" d="M237.1452,103.9293c-0.6074,13.1536,8.3734,27.7225,21.996,30.6946
				c2.8241,0.6162,6.0567-3.0851,3.3073-5.377c-4.1934-3.4965-9.4417-5.356-13.4801-9.1469
				c-4.6284-4.3442-7.2659-9.7094-7.6747-16.0702C241.1244,101.4037,237.2705,101.2189,237.1452,103.9293L237.1452,103.9293z"/>
		</g>
		<g id="XMLID_179_">
			<path class="st0" d="M226.6002,115.6193c7.5448-18.8887,30.6724-24.3244,48.4644-20.8355
				c3.6913,0.7239,5.4573-4.8606,1.7108-5.6677c-19.6424-4.231-49.7431,1.6583-54.4403,25.2153
				C221.774,117.1441,225.5304,118.2981,226.6002,115.6193L226.6002,115.6193z"/>
		</g>
		<g id="XMLID_178_">
			<path class="st0" d="M273.3427,91.8879c-0.8989,7.2688-1.2525,14.4792-3.4469,21.5337
				c-2.4814,7.977-6.8973,12.9733-12.5439,18.8192c-2.1652,2.2428,0.3956,5.7546,3.2047,4.3677
				c14.8897-7.3543,18.8081-29.7129,17.9405-44.5957C278.3029,88.6753,273.7491,88.5991,273.3427,91.8879L273.3427,91.8879z"/>
		</g>
		<g id="XMLID_177_">
			<path class="st0" d="M239.4607,70.2534c9.8531,2.4204,21.5005,5.343,28.2882,13.3617
				c10.1685,12.0115,10.4394,25.9631,15.1373,40.1047c0.8329,2.5063,5.2418,2.4883,4.9888-0.5525
				c-2.3247-27.952-15.6767-57.1182-47.7351-57.1533C237.7739,66.0107,237.0123,69.6518,239.4607,70.2534L239.4607,70.2534z"/>
		</g>
		<g id="XMLID_176_">
			<path class="st0" d="M222.5574,137.4057c20.1292,7.1725,45.7378,1.4534,63.911-8.588c2.4642-1.3618,0.9593-5.333-1.8169-4.6179
				c-10.5677,2.7229-20.3597,7.0651-31.2445,8.6991c-10.5026,1.5765-19.7914-0.0519-30.161,0.2072
				C220.7568,133.1682,220.1943,136.5637,222.5574,137.4057L222.5574,137.4057z"/>
		</g>
		<g id="XMLID_175_">
			<path class="st0" d="M237.0884,75.2682c0.1883-0.2236,0.3774-0.4472,0.5656-0.6708c-1.2252-0.7532-2.4496-1.5071-3.6748-2.2603
				c-0.6522,3.3902-5.6301,8.613-7.3216,11.78c-2.6292,4.922-5.2658,9.9814-7.0724,15.2739
				c-3.8537,11.2916-6.1962,27.0507,1.1762,37.254c2.0377,2.8193,6.5569,0.5811,4.8615-2.6855
				c-7.0839-13.6437-2.2695-30.1633,4.1099-43.1197c2.5378-5.154,8.0125-11.877,8.6124-17.8038
				c0.2446-2.4174-2.9254-2.8066-4.1284-1.2258c-0.2977,0.3752-0.5696,0.7693-0.8149,1.1816
				C231.8233,75.38,235.4002,77.3843,237.0884,75.2682L237.0884,75.2682z"/>
		</g>
		<g id="XMLID_174_">
			<path class="st0" d="M201.6951,102.02c17.5077-21.6525,48.0467-39.0322,76.0827-38.2924
				c3.3895,0.0893,4.3334-5.0715,0.9564-5.9715c-18.5533-4.9456-42.2997,8.013-57.4364,17.5262
				c-8.2922,5.2117-21.8336,14.7373-24.9544,24.3262C195.2214,103.0565,199.7314,104.4482,201.6951,102.02L201.6951,102.02z"/>
		</g>
		<g id="XMLID_90_">
			<path class="st0" d="M278.7862,61.2882c17.7168,29.8523,7.2849,71.6541-16.1053,95.604
				c-2.4164,2.4752,1.0256,5.9718,3.6619,3.8437c27.6581-22.3168,38.3401-73.0624,15.7613-101.8821
				C280.6458,56.9915,277.5961,59.2837,278.7862,61.2882L278.7862,61.2882z"/>
		</g>
		<g id="XMLID_89_">
			<path class="st0" d="M194.3476,104.8631c4.421,13.7246,16.4769,24.1266,27.0542,33.3764
				c10.9705,9.5925,23.6913,17.6278,37.2921,22.8763c2.6576,1.0256,4.6107-3.2569,2.0628-4.5795
				c-24.0213-12.4744-48.9946-28.835-62.2415-53.3126C197.3273,101.0293,193.5461,102.3743,194.3476,104.8631L194.3476,104.8631z"/>
		</g>
		<g id="XMLID_88_">
			<path class="st0" d="M224.022,42.5886c-12.6944,16.4328-24.9241,35.673-29.8779,56.139
				c-1.7051,7.0417-2.4423,14.3009-2.1169,21.5397c0.1141,2.5413,0.1587,6.7371,0.955,9.2759
				c1.4805,4.7203,3.6343,4.4234,2.2421,5.1164c-9.7899,4.8757-18.6361-13.5372-20.7655-19.4626
				c-3.6869-10.2579-5.0114-21.1488-4.0412-32.0197c2.435-27.2873,18.9169-43.7166,46.8146-41.2103
				c3.3764,0.3028,4.3572-5.3325,0.9565-5.9714c-76.5662-14.3917-60.467,117.1535-19.504,104.6885
				c1.7364-0.5288,2.79-2.1744,2.3935-3.9872c-7.8213-35.7407,9.7818-61.793,27.2794-91.4304
				C230.0614,42.3795,225.987,40.0451,224.022,42.5886L224.022,42.5886z"/>
		</g>
		<g id="XMLID_87_">
			<path class="st0" d="M312.7507,143.1302c-16.3467,9.6731-30.9291,16.2867-50.094,15.4835
				c-19.6201-0.8213-50.9568-4.3928-64.4653-21.195c-1.4726-1.8309-4.4152-0.3805-4.4943,1.7348
				c-1.3822,37.0585,29.0577,63.1031,64.1485,66.2186c20.8576,1.8523,41.781-4.6864,53.4619-22.966
				c5.6855-8.8963,12.3546-25.4727,6.1828-35.713c-1.7572-2.9143-6.1192-0.5013-4.6207,2.553
				c4.4555,9.0848-2.2821,24.0957-7.3329,31.4046c-13.9897,20.247-40.6754,22.5786-62.7804,16.4275
				c-25.8735-7.1996-44.8207-30.44-43.8468-57.7984c-1.4976,0.5783-2.9959,1.1565-4.4935,1.7348
				c13.0722,16.2034,41.4656,20.8945,60.7903,22.2572c23.5797,1.6622,39.4242-3.7568,59.6099-16.4026
				C317.1292,145.4203,315.135,141.7195,312.7507,143.1302L312.7507,143.1302z"/>
		</g>
		<g id="XMLID_86_">
			<path class="st0" d="M321.1558,82.3445c1.5983-22.6136-12.0134-43.8174-33.1204-51.7856
				c-17.0416-6.4338-56.9351-11.4601-64.5287,12.5586c-0.4184,1.3224,0.3917,3.2239,1.8728,3.4927
				c21.3412,3.8762,48.2808,8.063,64.3782,24.1624c17.2571,17.2604,21.008,48.3008,21.0004,71.2177
				c-0.0007,2.3907,2.4823,3.8629,4.5946,2.7867c20.2808-10.3362,36.1566-30.3944,33.9961-53.9371
				c-1.6151-17.6032-11.9023-41.6474-32.6404-42.2946c-2.9243-0.0907-3.0377,4.4534-0.1101,4.545
				c19.1357,0.5973,27.5808,28.3152,27.2133,43.4161c-0.4598,18.8767-15.3504,34.6632-31.4551,42.8474
				c1.5318,0.9292,3.0628,1.8583,4.5946,2.7867c0.0356-23.7097-3.752-51.7934-18.8818-71.1783
				c-12.4348-15.9311-41.1548-27.7124-60.782-27.878c-4.383-0.037-8.1733,3.355-7.3841-0.5343
				c0.6689-3.292,6.2112-6.4444,8.6714-7.7705c14.6967-7.9202,37.6175-4.2991,51.8263,2.3364
				c17.0979,7.9847,27.4696,26.2756,26.3022,45.1209C316.5246,85.1032,320.9538,85.1962,321.1558,82.3445L321.1558,82.3445z"/>
		</g>
		<g id="XMLID_85_">
			<path class="st0" d="M162.0689,120.9064c-7.197,22.3213-7.9779,47.1944,7.5228,66.3331
				c12.5495,15.495,32.9682,25.551,52.789,18.713c3.6929-1.2748,2.4393-6.729-1.4864-5.9512
				c-19.3121,3.826-36.6597-2.0555-48.6022-18.0256c-13.4843-18.0308-10.5145-39.2032-6.2791-59.8782
				C166.5376,119.5375,162.8958,118.3433,162.0689,120.9064L162.0689,120.9064z"/>
		</g>
		<g id="XMLID_84_">
			<path class="st0" d="M317.2073,188.3553c15.1024,2.3059,28.5703-9.4675,36.8671-20.9711
				c9.1293-12.6561,10.9347-29.3178,3.4032-43.1925c-1.8631-3.4336-6.7637-0.5789-5.2347,2.8919
				c10.8394,24.6133-7.451,55.3405-34.9337,57.0628C314.5567,184.319,314.5569,187.95,317.2073,188.3553L317.2073,188.3553z"/>
		</g>
		<g id="XMLID_83_">
			<path class="st0" d="M224.437,198.7825c8.7446,7.1876,20.3079,11.1505,31.4948,11.8453c0.416,0.026,0.4847-0.8747,0.0753-0.9427
				c-6.1123-1.0179-11.827-2.3625-17.5565-4.7099c-4.7305-1.9377-9.1303-4.656-13.8909-6.4672
				C224.4463,198.4647,224.3559,198.7153,224.437,198.7825L224.437,198.7825z"/>
		</g>
		<g id="XMLID_82_">
			<path class="st0" d="M309.6372,189.4256c3.7004,3.9584,14.9704,2.5714,19.6859,1.711
				c8.1231-1.4815,14.6359-6.5908,19.9794-12.6293c0.1316-0.1487,0.142-0.8067-0.1685-0.59
				c-4.245,2.9652-8.0487,6.2536-12.7685,8.5354c-8.4083,4.0664-17.5587,3.7143-26.645,2.7531
				C309.6332,189.1965,309.5868,189.3727,309.6372,189.4256L309.6372,189.4256z"/>
		</g>
		<g id="XMLID_81_">
			<path class="st0" d="M348.7546,105.4184c2.8549,4.6614,5.8289,8.6713,8.0859,13.7324c2.0005,4.4872,3.7621,8.7635,5.18,13.4735
				c0.2119,0.7048,0.7361-0.0307,0.6954-0.4506c-0.5558-5.7394-3.3472-10.6926-5.5538-15.9242
				c-1.7443-4.1352-4.3181-8.7173-8.2686-11.0837C348.7917,105.1045,348.7149,105.3539,348.7546,105.4184L348.7546,105.4184z"/>
		</g>
		<g id="XMLID_80_">
			<path class="st0" d="M308.9267,45.6884c6.6129,0.3733,12.8109-0.5061,19.0253,2.6617c5.7848,2.9491,9.2878,8.1326,12.4288,13.619
				c0.2708,0.4733,0.639-0.2214,0.5257-0.5327c-4.6665-12.8433-19.1183-19.2279-31.9551-15.9486
				C308.8849,45.5053,308.8322,45.6829,308.9267,45.6884L308.9267,45.6884z"/>
		</g>
		<g id="XMLID_79_">
			<path class="st0" d="M298.7284,90.7087c5.463,7.7632,6.6165,22.9256,7.1534,32.0999c0.6258,10.6918-1.5351,20.0066-6.9833,29.183
				c-0.6929,1.1662,1.3713,3.056,2.2049,1.7636c5.8454-9.0665,7.4847-20.0183,6.7156-30.638
				c-0.7174-9.8974-2.2296-24.7242-8.9164-32.6737C298.8106,90.3346,298.6662,90.6189,298.7284,90.7087L298.7284,90.7087z"/>
		</g>
		<g id="XMLID_78_">
			<path class="st0" d="M246.2828,106.1511c3.0218,0.0732,3.1412-4.6242,0.1138-4.6975
				C243.3741,101.3803,243.2555,106.0777,246.2828,106.1511L246.2828,106.1511z"/>
		</g>
		<g id="XMLID_77_">
			<path class="st0" d="M251.945,114.2936c3.6892,0.0894,3.8345-5.6441,0.1389-5.7337
				C248.3939,108.4705,248.2494,114.2041,251.945,114.2936L251.945,114.2936z"/>
		</g>
		<g id="XMLID_76_">
			<path class="st0" d="M246.0585,115.4079c3.6304,0.088,3.7735-5.555,0.1368-5.6431
				C242.564,109.6768,242.4217,115.3198,246.0585,115.4079L246.0585,115.4079z"/>
		</g>
		<g id="XMLID_75_">
			<path class="st0" d="M260.3763,122.3991c0.1966-0.0732,0.394-0.1471,0.5914-0.221c2.687-1.005,2.7717-4.3048,0.1318-5.4405
				c-0.1936-0.0834-0.3871-0.1668-0.58-0.2494c-1.8711-0.8054-3.9073,1.0398-3.9515,2.8618
				C256.5237,121.1783,258.4733,123.1106,260.3763,122.3991L260.3763,122.3991z"/>
		</g>
		<g id="XMLID_74_">
			<path class="st0" d="M266.5837,108.3715c0.0523-0.056,0.1046-0.1127,0.1568-0.1687c1.0628-1.1406,1.1071-2.7057,0.0946-3.9038
				c-0.0495-0.0584-0.0989-0.1169-0.1484-0.1761c-1.7289-2.0454-5.1201-0.4906-5.1805,2.0004S264.7643,110.3246,266.5837,108.3715
				L266.5837,108.3715z"/>
		</g>
		<g id="XMLID_73_">
			<path class="st0" d="M257.6742,106.2181c4.8469,0.1175,5.0382-7.4157,0.1826-7.5334
				C253.009,98.5672,252.8185,106.1004,257.6742,106.2181L257.6742,106.2181z"/>
		</g>
		<g id="XMLID_72_">
			<path class="st0" d="M259.4431,113.7987c3.2386,0.0785,3.3662-4.9534,0.1219-5.0321
				C256.3271,108.6882,256.1996,113.7201,259.4431,113.7987L259.4431,113.7987z"/>
		</g>
		<g id="XMLID_71_">
			<path class="st0" d="M269.916,101.537c0.0468-0.0283,0.0936-0.0566,0.1404-0.0848c2.5181-1.5187,1.6786-5.5898-1.3876-5.6641
				c-3.0639-0.0742-4.1106,3.9456-1.6604,5.5903c0.0461,0.0305,0.0916,0.0611,0.1369,0.0916
				C267.9292,101.9953,269.1076,102.0238,269.916,101.537L269.916,101.537z"/>
		</g>
	</g>
	<g>
		<path class="st0" d="M266.7303,207.1083c-22.1684,37.8347-30.6468,83.8674-23.6053,127.1127
			c4.0457,24.8454,14.4182,48.2221,18.0555,73.1252c4.2689,29.2203-4.885,55.0958-21.9324,78.4553
			c-1.9473,2.6679,1.953,5.2684,4.2276,3.4281c36.8809-29.8418,33.8713-74.8379,21.7096-116.2109
			c-16.8337-57.2703-19.3143-109.0082,2.6263-165.4238C268.0593,206.9592,267.0687,206.5305,266.7303,207.1083L266.7303,207.1083z"
			/>
	</g>
	<g>
		<path class="st0" d="M324.253,289.6651c-33.4802,22.0493-58.3179,60.1978-56.6967,101.2001
			c0.0571,1.446,2.3643,2.0378,2.6848,0.43c7.9557-39.9148,22.8846-74.1501,54.466-101.0109
			C325.0374,290.0029,324.623,289.422,324.253,289.6651L324.253,289.6651z"/>
	</g>
	<g>
		<path class="st0" d="M188.5106,275.7498c17.2843,14.5301,30.1792,34.5716,41.8301,53.6535
			c9.8913,16.1994,25.1914,38.1667,26.393,57.7428c0.0879,1.4261,2.3527,2.0565,2.6856,0.43
			c3.8183-18.6872-13.4326-41.6185-22.7622-56.0981c-12.8297-19.9111-27.7844-42.8122-47.7064-56.2701
			C188.626,274.9886,188.2012,275.4903,188.5106,275.7498L188.5106,275.7498z"/>
	</g>
	<g>
		<path class="st0" d="M274.7536,354.4923c-7.5821-21.3979-6.0343-44.4548,12.596-59.812
			c8.811-7.2623,19.5071-10.0035,29.8153-14.2887c3.3723-1.401,9.7209-5.8378,13.234-6.1883
			c7.003-0.6985,5.8775,5.3269,6.3636,12.5283c0.7701,11.3973-4.2896,25.3064-9.6785,35.1544
			c-9.1441,16.7112-23.9952,27.9844-40.459,36.8143c-0.9948,0.5332-0.3819,2.2431,0.7415,1.8831
			c39.6566-12.7272,57.6693-53.7085,50.7014-92.941c-0.2162-1.2177-1.6719-1.3492-2.4885-0.7218
			c-18.7707,14.4251-44.579,15.098-58.9093,35.6198c-11.0292,15.795-11.8161,35.5057-2.3716,52.1308
			C274.4312,354.9042,274.8495,354.7641,274.7536,354.4923L274.7536,354.4923z"/>
	</g>
	<g>
		<path class="st0" d="M236.5955,340.0224c-11.5496,0.1963-23.4527-1.4548-33.4846-7.586
			c-13.4109-8.1951-16.0389-20.2862-17.3909-34.9367c-1.4074-15.2504-3.5416-26.9821-14.8673-38.1208
			c-0.7176,1.1664-1.4344,2.3321-2.1519,3.4985c19.5269,3.2209,45.8145,10.6253,56.4529,28.9346
			c8.0923,13.9289,12.5381,31.1881,13.0003,47.221c0.0165,0.5983,0.9665,0.8312,1.1016,0.1762
			c3.254-15.8427-3.9684-36.6324-12.4356-50.0814c-11.3681-18.0551-37.5183-25.2534-56.8908-30.3175
			c-2.1039-0.5495-3.5175,1.8809-2.1519,3.4985c11.9593,14.1617,10.3585,28.5132,13.0808,45.5065
			c1.2665,7.9072,3.7511,14.7292,9.1576,20.7237c12.2415,13.5715,29.6608,14.6273,46.6947,12.5229
			C237.3019,340.9896,237.1833,340.0128,236.5955,340.0224L236.5955,340.0224z"/>
	</g>
	<g>
		<path class="st0" d="M299.6555,292.2738c-0.2081,12.2291-6.6902,21.4178-10.1472,32.6808
			c-0.2477,0.8057,0.8094,1.1788,1.2725,0.5731c7.0406-9.2069,10.6645-21.7102,9.7893-33.2317
			C300.526,291.7209,299.6653,291.673,299.6555,292.2738L299.6555,292.2738z"/>
	</g>
	<g>
		<path class="st0" d="M303.2915,311.4573c8.8742-4.4606,17.7361-5.5243,27.4922-6.2514c0.5743-0.0425,0.854-0.9882,0.177-1.1016
			c-9.7919-1.6342-19.7185,1.6354-28.0439,6.6754C302.4907,311.0372,302.8448,311.6818,303.2915,311.4573L303.2915,311.4573z"/>
	</g>
	<g>
		<path class="st0" d="M280.8301,311.448c2.3031,12.2422,0.4823,23.1721-1.6892,35.2566c-0.1535,0.8549,1.0563,1.6197,1.5265,0.6881
			c5.6705-11.2317,4.7502-24.466,0.9138-36.1324C281.4265,310.7891,280.7379,310.9544,280.8301,311.448L280.8301,311.448z"/>
	</g>
	<g>
		<path class="st0" d="M279.7528,346.1923c11.9607-10.6309,25.4834-15.2499,41.0679-17.4824
			c0.8337-0.1197,0.5819-1.308-0.1541-1.3863c-15.886-1.6968-31.3849,6.4529-41.1844,18.6491
			C279.3528,346.1333,279.6098,346.3192,279.7528,346.1923L279.7528,346.1923z"/>
	</g>
	<g>
		<path class="st0" d="M188.1275,294.4439c4.9947-0.5635,9.8627-0.0059,14.5443,1.8472c3.7761,1.494,6.6161,4.3105,10.2606,5.8195
			c0.584,0.2423,1.1016-0.5132,0.8188-1.0137c-4.4747-7.9293-17.9524-8.9134-25.7939-7.336
			C187.5018,293.8523,187.6922,294.493,188.1275,294.4439L188.1275,294.4439z"/>
	</g>
	<g>
		<path class="st0" d="M204.7963,272.6295c-2.2692,7.3866-1.2119,18.3481,4.9169,23.7049c0.5217,0.4555,1.4586,0.0767,1.2514-0.6892
			c-0.9822-3.6293-2.9036-6.8847-3.9122-10.5067c-1.1329-4.0687-1.4947-8.2339-1.7745-12.4322
			C205.2605,272.4405,204.8818,272.3486,204.7963,272.6295L204.7963,272.6295z"/>
	</g>
	<g>
		<path class="st0" d="M202.6158,319.6298c5.849,0.3008,11.4069,0.8036,16.9214,2.9304c4.8891,1.8851,7.9497,4.6219,12.0762,7.4695
			c0.7397,0.5101,1.542-0.2806,1.4205-1.0389c-0.7288-4.5733-6.893-6.9877-10.7541-8.386
			c-6.1876-2.2417-13.2897-3.0276-19.7481-1.7371C202.0939,318.9549,202.1902,319.6075,202.6158,319.6298L202.6158,319.6298z"/>
	</g>
	<g>
		<path class="st0" d="M224.6531,288.8478c-3.1407,9.9208-4.5482,24.7285,3.7491,32.624c0.5432,0.5164,1.2862-0.0912,1.0134-0.7426
			c-2.3284-5.5565-4.1617-10.3148-4.5745-16.4108c-0.3497-5.158,0.2927-10.2752,0.0868-15.4257
			C224.9221,288.7375,224.7022,288.6916,224.6531,288.8478L224.6531,288.8478z"/>
	</g>
</g>
</svg>
